<svg width="140" height="74" viewBox="0 0 140 74" fill="none" xmlns="http://www.w3.org/2000/svg">
<path d="M59.395 34.0169H63.5775L67.2233 23.1854L69.3525 34.0169H73.5408L79.2458 17.2836L74.8708 17.2895L71.8258 26.388L70.0817 17.2895H64.19L64.0442 17.7228L64.3358 18.0038C64.645 18.3141 64.6275 18.6713 64.365 19.4441L59.395 34.0169ZM81.2642 19.4441L76.2883 34.0228H83.6325C86.7825 34.0228 88.5733 33.3202 90.0375 31.7569C91.8633 29.8131 93.5375 24.7603 93.4792 21.9793C93.4267 19.1396 91.6008 17.2954 87.7625 17.2954H81.0833L80.9433 17.7228L81.235 18.0038C81.5383 18.3141 81.5267 18.6713 81.2583 19.4441H81.2642ZM85.2542 21.2591H87.08C88.3225 21.2591 89.005 21.6748 89.0225 22.6409C89.0342 23.2615 88.865 24.1163 88.2233 25.9489C87.6517 27.5883 87.1967 28.5426 86.5492 29.2393C86.0358 29.7897 85.3417 30.0298 83.7608 30.0298H82.2383L85.2542 21.2591ZM108.973 23.2908H97.8833L96.4425 27.2721H104.131L95.3983 30.2522L94.8558 31.675L107.438 27.518L108.978 23.2908H108.973ZM29.4175 34.0228H40.7925L42.1692 30.0298H35.5542L39.9292 17.2895H34.2183L34.0783 17.7228L34.3642 18.0038C34.6733 18.3141 34.6617 18.6713 34.3933 19.4441L29.4175 34.0228ZM41.9767 34.0169H46.8183L48.9125 30.3166H53.9233L53.97 34.0169H58.3625L57.4175 17.2895H50.8433L50.6975 17.7228L50.9075 17.9335C51.2575 18.2731 51.1117 18.7649 49.8342 20.8024L41.9767 34.0169ZM53.62 21.9149H53.7717L53.8533 26.9735H50.7792L53.62 21.9149ZM46.725 37.6411H39.5267L39.3808 38.0744L39.6725 38.3671C39.9817 38.6657 39.9642 39.0287 39.6958 39.8016L34.6675 54.3803H39.2642L41.23 48.5898H42.7875L44.5142 54.3744H49.1342L46.9642 48.461C47.9053 48.3626 48.7904 47.9646 49.49 47.3251C50.3592 46.5288 50.96 45.4164 51.4558 43.7712C52.1792 41.3882 51.7417 40.0241 51.275 39.3215C50.6333 38.3613 49.28 37.6411 46.725 37.6411ZM47.1217 43.7185C46.83 44.4328 46.515 44.6026 46.1008 44.7724C45.6344 44.8929 45.1529 44.9442 44.6717 44.9246H42.4667L43.6625 41.4644H46.3167C47.11 41.4644 47.4367 41.8742 47.4483 42.3543C47.4102 42.8238 47.298 43.2843 47.1158 43.7185H47.1217ZM107.993 37.6411H100.8L100.66 38.0744L100.952 38.3671C101.261 38.6657 101.243 39.0287 100.981 39.8016L95.9467 54.3803H100.549L102.509 48.5956H104.067L105.799 54.3744H110.408L108.249 48.461C109.186 48.361 110.067 47.963 110.763 47.3251C111.638 46.5288 112.239 45.4164 112.735 43.7712C113.458 41.3882 113.027 40.0241 112.56 39.3215C111.918 38.3613 110.559 37.6411 107.998 37.6411H107.993ZM108.401 43.7185C108.109 44.4328 107.794 44.6026 107.386 44.7724C106.919 44.8926 106.438 44.9439 105.957 44.9246H103.763L104.947 41.4644H107.602C108.395 41.4644 108.722 41.8742 108.728 42.3543C108.692 42.8237 108.582 43.2844 108.401 43.7185ZM116.375 15.9546C102.579 8.7999 85.4 6.05981 70 6.05981C54.6 6.05981 37.4208 8.7999 23.625 15.9546C15.8667 19.9769 6.0375 27.2253 6.0375 36.9971C6.0375 46.7689 15.8725 54.0173 23.625 58.0396C37.4208 65.1942 54.6 67.9343 70 67.9343C85.4 67.9343 102.579 65.2001 116.375 58.0396C124.128 54.0173 133.963 46.7689 133.963 36.9971C133.963 27.2194 124.133 19.9769 116.375 15.9546ZM115.675 56.6695C102.083 63.7129 85.1842 66.3886 70 66.3886C54.8158 66.3886 37.9167 63.7129 24.325 56.6695C17.1442 52.9282 7.58333 46.0487 7.58333 36.9971C7.58333 27.9337 17.1383 21.0601 24.325 17.3305C37.9167 10.287 54.8217 7.61136 70 7.61136C85.1842 7.61136 102.083 10.2812 115.675 17.3305C122.868 21.0601 132.417 27.9278 132.417 37.0029C132.417 46.0605 122.862 52.9341 115.675 56.6695ZM119.146 10.5739C105.997 3.75299 88.55 0 70 0C51.4558 0 34.0083 3.75299 20.8542 10.5739C13.0667 14.6138 0 23.4196 0 36.9971C0 50.5746 13.0667 59.3803 20.8542 63.4202C34.0025 70.2412 51.4558 74 70 74C88.55 74 105.997 70.247 119.146 63.4261C126.933 59.3803 140 50.5804 140 36.9971C140 23.4137 126.933 14.6138 119.146 10.5739ZM117.437 60.1063C104.808 66.6462 87.9667 70.2529 70 70.2529C52.0333 70.2529 35.1983 66.6463 22.5633 60.0946C10.4183 53.8006 3.72167 45.5921 3.72167 36.9971C3.72167 28.3962 10.4183 20.1935 22.5633 13.8937C35.1983 7.34789 52.0392 3.74128 70 3.74128C87.9667 3.74128 104.808 7.35375 117.437 13.8995C129.588 20.1935 136.278 28.4021 136.278 37.0029C136.278 45.5979 129.588 53.8065 117.437 60.1063ZM62.545 37.4479H62.0142C58.87 37.4479 57.0792 38.291 55.6033 39.8601C53.7717 41.8098 52.0508 47.0616 52.0858 49.8486C52.1208 52.6823 53.9525 54.6496 57.7908 54.6496H58.3508C61.5008 54.6496 63.2975 53.8006 64.7675 52.2315C66.5992 50.2818 68.285 45.03 68.25 42.2431C68.215 39.4093 66.3833 37.442 62.5392 37.442L62.545 37.4479ZM62.8075 46.3122C62.2358 47.9574 61.7867 49.0172 61.1275 49.7139C60.6025 50.2643 59.92 50.6565 58.3275 50.6565C57.0908 50.6565 56.4025 50.1472 56.4025 49.187C56.3908 48.5605 56.56 47.6178 57.225 45.7794C57.7967 44.14 58.2458 43.0745 58.9108 42.3777C59.4242 41.8274 60.1183 41.4351 61.6992 41.4351C62.9417 41.4351 63.63 41.9445 63.6242 42.8988C63.6417 43.5311 63.4725 44.4796 62.8075 46.3122ZM35.2042 39.8074L22.6217 43.9585L21.0875 48.1916H32.1825L33.6292 44.2044H25.935L34.6675 41.236L35.2042 39.8074ZM80.9725 37.647L74.8708 49.6788H74.7425L74.4333 37.647H69.3292L69.1308 38.0802L69.5683 38.3496C69.9942 38.6482 70.1108 38.9526 70.1633 39.7899L70.8575 54.3803H76.545L85.7208 37.647H80.9725ZM94.9492 47.6705L96.2267 44.1752H90.3583L91.2683 41.4995H97.615L99.015 37.6353H87.0333L86.8642 38.1271L87.1558 38.414C87.465 38.7126 87.4475 39.0697 87.1792 39.8543L82.1917 54.3744H93.3917L94.745 50.4926H88.2117L89.1683 47.6705H94.9492Z" fill="white"/>
</svg>
