<svg width="117" height="117" viewBox="0 0 117 117" fill="none" xmlns="http://www.w3.org/2000/svg">
<path d="M58.5 0C26.13 0 0 26.13 0 58.5C0 90.87 26.13 117 58.5 117C90.87 117 117 90.87 117 58.5C117 26.13 90.87 0 58.5 0ZM58.5 6.87375C64.35 6.87375 70.005 7.94625 75.2213 9.75L59.1338 44.5088C58.9388 44.7038 58.9388 45.1425 58.5 45.1425C58.0612 45.1425 58.0612 44.7038 57.8662 44.5088L41.7787 9.75C46.995 7.94625 52.65 6.9225 58.5 6.9225V6.87375ZM33.6375 13.3575L52.26 53.4788C52.65 54.3075 53.0887 54.5512 53.625 54.5512H63.375C63.96 54.5512 64.35 54.3075 64.7887 53.4788L83.1675 13.3575C90.87 17.745 97.5 24.0337 102.18 31.5412L76.05 82.095C75.855 82.5338 75.5625 82.7287 75.4163 82.7287C75.0263 82.7287 75.0263 82.3388 74.7825 82.095L64.7887 59.9625C64.35 59.1338 63.96 58.9388 63.375 58.9388H53.625C53.0887 58.9388 52.65 59.1338 52.2113 59.9625L42.2175 82.095C41.9738 82.3388 42.0225 82.7287 41.5837 82.7287C41.145 82.7287 41.145 82.3388 40.95 82.095L14.625 31.5412C19.2075 24.0337 25.935 17.745 33.6375 13.3575ZM10.0425 41.5837L40.1212 100.084C40.5112 100.913 40.95 101.546 42.0225 101.546C43.0462 101.546 43.4362 100.913 43.875 100.084L57.8662 68.9325C58.0612 68.5425 58.305 68.25 58.5 68.25C58.9388 68.25 58.9388 68.7375 59.1338 68.9325L73.32 100.084C73.7588 100.913 74.1488 101.546 75.2213 101.546C76.245 101.546 76.6838 100.913 77.0738 100.084L107.25 41.5837C109.054 46.8 110.126 52.455 110.126 58.5C109.882 86.7262 86.7262 110.126 58.5 110.126C30.2738 110.126 7.1175 86.7262 7.1175 58.5C7.1175 52.65 8.14125 47.0437 10.0425 41.5837Z" fill="white"/>
</svg>
