<svg width="117" height="94" viewBox="0 0 117 94" fill="none" xmlns="http://www.w3.org/2000/svg">
<path d="M58.4951 51.0803C58.3196 51.0803 57.9833 50.856 57.4129 49.8128C55.0257 45.3682 51.7482 41.4634 47.7848 38.3419C44.6744 35.9024 41.2215 33.9345 37.5375 32.5016C36.9792 32.2748 36.4185 32.0538 35.8556 31.8386C30.9221 29.8886 25.8083 27.8753 21.06 25.1258C20.5337 24.8278 20.0135 24.519 19.5 24.1995C20.4457 22.542 21.5475 20.9576 22.7663 19.5097C24.535 17.3957 26.5911 15.5398 28.8746 13.9961C31.3264 12.3569 33.977 11.0365 36.7624 10.0669C42.7001 7.95112 49.8127 6.91275 58.4951 6.903C67.1872 6.91275 74.295 7.95113 80.2327 10.0718C83.0202 11.038 85.6726 12.3568 88.1254 13.9961C90.4076 15.5396 92.4636 17.3937 94.2337 19.5049C95.4525 20.9576 96.5494 22.542 97.5 24.1995C96.9979 24.5115 96.4665 24.8284 95.94 25.1355C91.182 27.885 86.0779 29.8984 81.1346 31.8435L79.4528 32.5065C75.7723 33.9406 72.3228 35.9084 69.2152 38.3468C65.2501 41.4684 61.9723 45.3753 59.5871 49.8225C59.0167 50.8609 58.6755 51.0851 58.4951 51.0851V51.0803ZM58.4951 85.5611C50.9681 85.5514 44.8549 84.9323 39.8239 83.6745C34.8855 82.446 30.7808 80.5545 27.2659 77.883C24.5716 75.8139 22.2727 73.2756 20.4799 70.3901C18.8003 67.6979 17.4732 64.8012 16.5311 61.7711C15.0619 57.0619 14.2948 52.1619 14.2545 47.229C14.2545 43.9433 14.4836 40.8281 14.9126 37.9616C20.3044 40.8671 25.4085 42.3248 29.9276 43.6166L30.9757 43.9091C37.2645 45.7178 42.2565 48.087 46.2589 51.1631C48.5745 52.9571 50.5976 55.029 52.2551 57.3251C54.054 59.8016 55.4872 62.6291 56.5305 65.7345C56.9985 67.1434 57.5055 68.016 58.4951 68.016C59.5042 68.016 59.9966 67.1385 60.4695 65.7345C62.3303 59.9464 65.9139 54.8643 70.7411 51.168C74.7386 48.087 79.7355 45.7178 86.0242 43.9091L87.0772 43.6166C91.5915 42.3248 96.6956 40.8671 102.083 37.9616C102.521 40.833 102.745 43.9433 102.745 47.2241C102.745 49.4569 102.521 55.3361 100.479 61.7711C99.5371 64.8006 98.2117 67.6972 96.5348 70.3901C94.7364 73.2775 92.4308 75.8159 89.7292 77.883C86.2046 80.5545 82.0999 82.446 77.181 83.6745C72.1354 84.9323 66.027 85.5514 58.4951 85.5611ZM105.744 14.6006C96.4372 4.60688 81.4174 0.024375 58.4951 0C35.5826 0.024375 20.5627 4.602 11.2564 14.5958C4.33875 22.0106 0 32.2725 0 46.1955C0 53.8931 1.90125 73.4955 17.3745 83.616C26.637 89.6707 38.6003 93.5902 58.4951 93.6195C78.3997 93.5902 90.3581 89.6707 99.6255 83.616C115.094 73.4955 117 53.8882 117 46.1955C117 32.3115 112.627 21.9765 105.739 14.5909L105.744 14.6006Z" fill="white"/>
</svg>
