<svg width="139" height="70" viewBox="0 0 139 70" fill="none" xmlns="http://www.w3.org/2000/svg">
<path d="M24.6609 17.1862L24.4872 17.3431V19.1157L24.6609 19.2785H25.7845C26.2015 19.2785 26.52 19.5981 26.52 20.0108V51.9944C26.52 52.4012 26.8386 52.7267 27.2266 52.7267H35.335C35.431 52.7275 35.5262 52.709 35.6151 52.6725C35.704 52.636 35.7848 52.5821 35.8527 52.5139C35.9206 52.4458 35.9743 52.3647 36.0107 52.2755C36.0471 52.1863 36.0655 52.0907 36.0647 51.9944V38.5453C36.0647 38.2199 36.2385 38.0571 36.4585 38.0571C36.7713 38.0571 36.9219 38.3012 37.0145 38.464L46.5882 51.9188C46.9067 52.4012 47.4685 52.7267 47.8565 52.7267H57.4997C57.8935 52.7267 58.4263 52.2036 57.9862 51.5933L45.7831 34.2735L45.6325 33.8667L45.7831 33.3901L55.988 18.2323C56.2545 17.7906 55.9127 17.1862 55.4262 17.1862H46.2696C45.8526 17.1862 45.3198 17.5058 44.9781 17.994L37.0145 29.2693C36.7713 29.6588 36.5049 29.6762 36.4759 29.6762H36.4585C36.4054 29.6779 36.3524 29.6685 36.3031 29.6485C36.2538 29.6285 36.2091 29.5984 36.1721 29.5601C36.135 29.5218 36.1063 29.4761 36.0878 29.4261C36.0693 29.376 36.0615 29.3226 36.0647 29.2693V17.9127C36.0647 17.8165 36.0456 17.7214 36.0084 17.6328C35.9713 17.5442 35.9168 17.4639 35.8483 17.3968C35.7797 17.3296 35.6985 17.2769 35.6093 17.2417C35.5202 17.2066 35.4249 17.1896 35.3292 17.192L24.6609 17.1862ZM89.8288 17.1862L89.6782 17.3431V19.1157L89.8288 19.2785H90.8018C91.1956 19.2785 91.5373 19.511 91.5373 19.9178L91.4388 20.3305L80.9154 51.8374V51.8955C80.8941 51.9876 80.8919 52.0831 80.9088 52.176C80.9258 52.269 80.9615 52.3575 81.0138 52.4361C81.037 52.4651 81.037 52.4942 81.0602 52.5116C81.1899 52.6417 81.3634 52.7184 81.5467 52.7267H89.7535C90.1473 52.7267 90.5643 52.4012 90.7322 51.9944L97.7112 29.9203C97.7112 29.9203 97.8097 29.589 98.0819 29.589C98.3483 29.589 98.4178 29.9203 98.4178 29.9203L105.501 51.9944C105.646 52.4012 106.063 52.7267 106.474 52.7267H114.658C114.769 52.7302 114.88 52.7042 114.979 52.6511C115.078 52.5981 115.16 52.5199 115.219 52.4244C115.31 52.2661 115.344 52.0819 115.318 51.9014C115.318 51.8839 115.289 51.8607 115.289 51.8432L103.891 17.6685C103.717 17.2617 103.329 17.1862 102.912 17.1862H89.8288ZM62.7237 17.1862L62.6542 17.3431V19.1157L62.7237 19.2785H63.8473C64.2585 19.2785 64.5829 19.5981 64.5829 20.0108V51.9944C64.5829 52.4012 64.9014 52.7267 65.3126 52.7267H73.641C73.7371 52.7275 73.8323 52.709 73.9212 52.6725C74.0101 52.636 74.0909 52.5821 74.1588 52.5139C74.2267 52.4458 74.2804 52.3647 74.3168 52.2755C74.3532 52.1863 74.3716 52.0907 74.3708 51.9944V17.9127C74.3708 17.817 74.3518 17.7224 74.315 17.6341C74.2782 17.5459 74.2243 17.466 74.1564 17.3989C74.0884 17.3318 74.0079 17.279 73.9194 17.2435C73.831 17.2079 73.7363 17.1904 73.641 17.192L62.7237 17.1862ZM130.845 35C130.845 51.8665 103.329 65.5945 69.4884 65.5945C35.6477 65.5945 8.1315 51.8665 8.1315 35C8.1315 18.1393 35.6477 4.41132 69.4884 4.41132C103.323 4.41132 130.845 18.1451 130.845 35ZM118.59 10.2117C105.455 3.63251 88.0218 0 69.4884 0C50.9551 0 33.5222 3.63251 20.4098 10.2117C7.228 16.82 0 25.6136 0 35C0 44.3864 7.228 53.1916 20.4098 59.7999C33.5222 66.3791 50.9551 70 69.4884 70C88.0218 70 105.455 66.3791 118.59 59.7999C131.749 53.1858 139 44.3864 139 35C139 25.6136 131.749 16.82 118.59 10.2117Z" fill="white"/>
</svg>
