<svg width="117" height="80" viewBox="0 0 117 80" fill="none" xmlns="http://www.w3.org/2000/svg">
<path d="M58.5 0C25.4621 0 0 16.8188 0 39.741C0 62.6633 25.467 79.482 58.5 79.482C91.533 79.482 117 62.6633 117 39.741C117 16.8188 91.5379 0 58.5 0ZM94.2533 18.7151C94.2533 23.9801 85.8439 28.041 72.3743 29.6644C71.1068 17.0869 67.4749 8.80425 62.8046 5.7135C77.1761 6.6105 94.2484 11.6951 94.2484 18.7151H94.2533ZM58.5 61.1959C53.82 61.1959 49.9883 53.8834 49.686 39.7995C52.4989 40.0286 55.4385 40.1505 58.5 40.1505C61.5615 40.1505 64.4963 40.0286 67.3091 39.7995C67.0117 53.8882 63.18 61.1959 58.5 61.1959ZM58.5 30.4444C55.6237 30.4444 52.8694 30.3517 50.2613 30.1811C51.5336 21.7571 54.7463 14.8249 58.5 14.8249C62.2537 14.8249 65.4615 21.7571 66.7339 30.1811C64.1257 30.3469 61.3763 30.4444 58.5 30.4444ZM54.2002 5.70375C49.5397 8.78963 45.8835 17.0771 44.6258 29.6644C31.1561 28.041 22.7419 23.9801 22.7419 18.7151C22.7419 11.6951 39.8239 6.57638 54.2002 5.70375ZM9.93038 38.181C9.91806 32.6219 11.7109 27.2091 15.0394 22.7565C16.3556 30.2981 27.3341 36.8014 44.1529 39.1852V39.741C44.1529 58.1295 48.438 69.9806 54.327 73.7197C29.4304 72.1549 9.93038 56.7547 9.93038 38.181ZM62.6925 73.7197C68.5766 69.9806 72.8666 58.1295 72.8666 39.741V39.1804C89.6707 36.8014 100.674 30.2786 101.98 22.7516C105.313 27.2041 107.108 32.6194 107.094 38.181C107.075 56.7547 87.555 72.1549 62.6876 73.7197H62.6925Z" fill="white"/>
</svg>
