<svg width="117" height="117" viewBox="0 0 117 117" fill="none" xmlns="http://www.w3.org/2000/svg">
<path d="M58.3001 0.000359836C25.9937 0.112484 -0.111764 26.3983 0.000359836 58.7047C0.112484 91.0112 26.3983 117.107 58.6999 117C91.0063 116.888 117.112 90.6065 117 58.3001C116.888 25.9937 90.6065 -0.111764 58.3001 0.000359836ZM58.5 10.4035C64.8185 10.3866 71.0777 11.6231 76.9151 14.0414C82.7526 16.4597 88.0524 20.0119 92.5078 24.4922C96.9884 28.9474 100.541 34.2472 102.959 40.0847C105.377 45.9222 106.614 52.1814 106.596 58.5C106.614 64.8186 105.377 71.0778 102.959 76.9153C100.541 82.7528 96.9884 88.0526 92.5078 92.5078C88.0524 96.9882 82.7526 100.54 76.9151 102.959C71.0777 105.377 64.8185 106.613 58.5 106.596C52.1815 106.613 45.9224 105.377 40.085 102.958C34.2476 100.54 28.9478 96.9879 24.4922 92.5078C20.0116 88.0526 16.4593 82.7528 14.041 76.9153C11.6227 71.0778 10.3863 64.8186 10.4035 58.5C10.3863 52.1814 11.6227 45.9222 14.041 40.0847C16.4593 34.2472 20.0116 28.9474 24.4922 24.4922C28.9478 20.0121 34.2476 16.4601 40.085 14.0418C45.9224 11.6234 52.1815 10.3869 58.5 10.4035ZM59.0557 16.2243C54.8901 16.2209 50.7464 16.8269 46.7562 18.0231C46.4301 18.1083 46.1291 18.2704 45.8787 18.496C45.6898 18.6757 45.5735 18.9186 45.5521 19.1785C45.518 19.6709 45.8153 20.1389 46.2492 20.5094C50.0371 23.7512 55.1216 28.6067 58.7145 34.6273C56.7011 34.6663 55.1119 33.5548 53.742 32.2385C49.542 28.2915 44.8686 24.8806 39.8289 22.084C39.1025 21.6794 38.3176 21.4892 37.5523 21.928C33.1258 24.502 30.1277 26.9346 26.6177 31.0052C26.2862 31.3903 26.2033 31.79 26.3252 32.1264C26.4694 32.451 26.7279 32.7113 27.0516 32.8577C30.8053 34.8564 36.6748 38.6296 42.0957 43.5143C41.5623 43.8506 40.9214 43.9725 40.3017 43.8556C39.434 43.7288 38.3664 43.3242 37.0891 42.6563C32.8419 40.4643 28.3545 38.7727 23.7171 37.6156C22.8737 37.3963 21.9329 37.64 21.4746 38.4249C19.1395 42.4857 17.5259 47.3363 16.7703 52.2552C16.6974 52.7545 16.8245 53.2623 17.1238 53.6685C17.4232 54.0747 17.8708 54.3464 18.3692 54.4245C22.5861 55.1655 28.4409 56.5208 33.545 59.8504C38.6442 63.1702 42.9927 68.4449 44.2358 77.0736C44.2874 77.3889 44.2541 77.7123 44.1393 78.0105C44.0245 78.3086 43.8323 78.5708 43.5826 78.7701C43.1 79.1406 42.3931 79.2576 41.5351 78.8579L33.9204 75.2845C33.6247 75.1359 33.3005 75.0527 32.9698 75.0408H20.992C20.0755 75.0408 19.3832 75.4893 19.1005 76.1328C18.8177 76.7763 18.9445 77.5953 19.5392 78.2777C22.4155 81.583 25.048 85.1515 27.3002 88.9344C27.3979 89.1111 27.5424 89.2573 27.7179 89.3571C27.8933 89.4569 28.0929 89.5063 28.2947 89.4999H33.5255C33.9032 89.5032 34.2743 89.402 34.598 89.2074L39.5315 86.3215C39.785 86.1655 40.0336 86.1703 40.3944 86.1703H79.8036C80.023 86.1703 80.2131 86.2386 80.3447 86.3556C80.4131 86.4145 80.4675 86.488 80.5037 86.5707C80.54 86.6533 80.5573 86.7431 80.5544 86.8333V88.7736C80.5544 89.6023 81.3051 90.2361 82.1192 90.1093C87.0069 89.3277 91.5478 87.0981 95.1549 83.7085C95.3093 83.5643 95.4324 83.39 95.5166 83.1963C95.6008 83.0025 95.6442 82.7936 95.6442 82.5824C95.6442 82.3711 95.6008 82.1622 95.5166 81.9684C95.4324 81.7747 95.3093 81.6004 95.1549 81.4562C91.5497 78.0668 87.0103 75.837 82.1241 75.0554C81.9304 75.0252 81.7324 75.0372 81.5438 75.0906C81.3551 75.1441 81.1803 75.2377 81.0312 75.365C80.8821 75.4923 80.7623 75.6504 80.68 75.8283C80.5977 76.0063 80.5548 76.1999 80.5544 76.396V78.1705C80.5481 78.4001 80.4697 78.6218 80.3301 78.8043C80.1936 78.9798 80.0181 79.087 79.828 79.087C79.4429 79.087 79.0626 79.0967 78.6824 79.087C78.0828 79.0772 77.7708 78.736 77.5904 78.2436C77.4237 77.7343 77.4067 77.1877 77.5416 76.669C80.4471 66.2463 81.1589 59.9089 81.1247 55.2923C81.0906 50.4027 80.9639 45.4936 78.7555 39.0245C76.6349 32.8235 74.6605 26.6908 64.389 17.3845C63.7178 16.7554 62.8457 16.3841 61.9271 16.3364C60.9716 16.2653 60.0139 16.2295 59.0557 16.2291V16.2243ZM66.5047 63.531C67.9282 63.5908 69.2734 64.1984 70.2595 65.2268C71.2455 66.2551 71.796 67.6247 71.796 69.0494C71.796 70.4741 71.2455 71.8438 70.2595 72.8721C69.2734 73.9005 67.9282 74.508 66.5047 74.5679C65.0411 74.5679 63.6375 73.9865 62.6026 72.9516C61.5676 71.9167 60.9862 70.513 60.9862 69.0494C60.9862 67.5858 61.5676 66.1822 62.6026 65.1473C63.6375 64.1124 65.0411 63.531 66.5047 63.531Z" fill="white"/>
</svg>
