<svg width="117" height="117" viewBox="0 0 117 117" fill="none" xmlns="http://www.w3.org/2000/svg">
<path d="M58.5 0C90.7871 0 117 26.2129 117 58.5C117 90.7871 90.7871 117 58.5 117C26.2129 117 0 90.7871 0 58.5C0 26.2129 26.2129 0 58.5 0ZM15.8194 85.5026C20.373 92.7027 26.6745 98.6335 34.1371 102.743C41.5997 106.852 49.9808 109.006 58.5 109.005C76.4449 109.005 92.2204 99.6255 101.181 85.5026L58.5 69.2396L15.8194 85.5026ZM67.8015 53.1278L103.228 81.9634C107.034 74.7287 109.017 66.6746 109.005 58.5C109.005 31.3121 87.4721 9.11137 60.5475 8.034L67.8015 53.1278ZM56.4525 8.034C29.5279 9.11137 7.995 31.3121 7.995 58.5C7.995 66.9679 10.0815 74.9482 13.7719 81.9634L49.1985 53.1278L56.4525 8.034Z" fill="white"/>
</svg>
