<svg width="117" height="117" viewBox="0 0 117 117" fill="none" xmlns="http://www.w3.org/2000/svg">
<path d="M58.5 0C26.1934 0 0 26.1934 0 58.5C0 90.8066 26.1934 117 58.5 117C90.8066 117 117 90.8066 117 58.5C117 26.1934 90.8066 0 58.5 0ZM58.5 3.8025C88.7055 3.8025 113.193 28.2896 113.193 58.5C113.193 88.7055 88.7104 113.193 58.5 113.193C28.2896 113.193 3.80738 88.7055 3.80738 58.5C3.80738 28.2945 28.2945 3.8025 58.5 3.8025ZM55.1947 6.87375C53.586 6.942 51.9772 7.0785 50.3587 7.254L49.8371 21.606C50.985 21.4118 52.1395 21.2589 53.2984 21.1477L53.6396 11.4562L53.5762 10.7884L53.7859 11.4221L57.0229 18.681H59.9771L63.2141 11.427L63.4091 10.7884L63.3604 11.4562L63.7016 21.1477C64.8326 21.255 66.0075 21.411 67.1629 21.606L66.6315 7.254C65.0242 7.07288 63.4113 6.94606 61.7955 6.87375L58.6121 14.7956L58.5 15.3806L58.3879 14.7956L55.1947 6.87375ZM87.8377 15.7657L80.3156 27.6023C81.2663 28.3335 82.5191 29.4109 83.3235 30.147L90.4069 26.4712L90.8554 26.1349L90.519 26.5931L86.853 33.6765C87.6476 34.5296 88.7933 35.9092 89.4368 36.7477L101.283 29.2207C100.557 28.2809 99.8088 27.3577 99.0405 26.4517L91.5379 31.395L91.026 31.8435L91.4062 31.2829L94.7213 24.6724L92.3813 22.3324L85.7708 25.6474L85.2101 26.0276L85.6537 25.5109L90.6165 18.0082C89.739 17.2673 88.9054 16.5896 87.8377 15.7657ZM26.8125 18.4519C25.0575 18.6322 23.7022 19.8315 20.0216 23.9362C18.7453 25.3826 17.5146 26.8686 16.3312 28.392L26.442 37.9811C29.7911 34.2761 31.1512 32.9014 33.7935 30.1178C35.6606 28.1434 36.7185 25.8765 34.8465 23.6974C33.8325 22.5176 32.1262 22.2593 30.7027 22.8442L30.5662 22.893L30.615 22.7663C30.7908 22.1194 30.7722 21.4351 30.5615 20.7987C30.3509 20.1624 29.9574 19.6022 29.4304 19.188C29.064 18.8991 28.644 18.6858 28.1947 18.5603C27.7453 18.4347 27.2755 18.3996 26.8125 18.4568V18.4519ZM26.8418 21.45C27.5048 21.2696 28.1921 21.7425 28.3433 22.425C28.4993 23.1075 28.0702 23.751 27.5925 24.2872C26.52 25.506 22.5664 29.64 22.5664 29.64L20.6066 27.7729C22.6395 25.2866 24.804 23.0246 25.7839 22.1276C26.0779 21.8212 26.4404 21.5889 26.8418 21.45ZM58.5 23.8046C49.9122 23.8008 41.6284 26.9834 35.2524 32.7363C28.8763 38.4892 24.8614 46.4032 23.985 54.9461V54.9559C23.4341 60.3759 24.1664 65.8495 26.1227 70.934C28.079 76.0186 31.2044 80.5714 35.2461 84.2245C39.2878 87.8775 44.1324 90.5281 49.3883 91.9621C54.6441 93.396 60.1636 93.573 65.5005 92.4787C73.3233 90.8707 80.3511 86.6113 85.3963 80.4203C90.4415 74.2293 93.1946 66.4864 93.1905 58.5C93.1815 49.3027 89.5235 40.4848 83.0196 33.9818C76.5157 27.4788 67.6973 23.8221 58.5 23.8144V23.8046ZM31.5071 24.9844C31.7362 24.9844 31.9751 25.0478 32.1896 25.194C32.6186 25.4816 32.8136 25.974 32.7064 26.4615C32.5796 27.0416 32.097 27.5876 31.707 28.0117L26.6126 33.4718L24.5651 31.5217C24.5651 31.5217 28.4018 27.4657 29.6595 26.1641C30.1567 25.6474 30.4785 25.3354 30.8197 25.1648C31.0311 25.055 31.2642 24.9934 31.5022 24.9844H31.5071ZM58.5 28.3627C62.4589 28.3583 66.3799 29.1347 70.0383 30.6477C73.6968 32.1606 77.0209 34.3803 79.8203 37.1797C82.6197 39.9791 84.8394 43.3032 86.3523 46.9617C87.8653 50.6201 88.6417 54.5411 88.6372 58.5H58.5V88.6372C54.5411 88.6417 50.6201 87.8653 46.9617 86.3523C43.3032 84.8394 39.9791 82.6197 37.1797 79.8203C34.3803 77.0209 32.1606 73.6968 30.6477 70.0383C29.1347 66.3799 28.3583 62.4589 28.3627 58.5H58.5V28.3627Z" fill="white"/>
</svg>
