<svg width="115" height="82" viewBox="0 0 115 82" fill="none" xmlns="http://www.w3.org/2000/svg">
<path d="M54.3686 0.130959C44.2118 0.804878 37.2082 2.27322 29.746 5.20992C13.139 11.7315 2.28372 23.4292 0.309928 36.9321C-2.81865 58.3045 18.0729 77.8002 47.8693 81.3383C70.0606 83.986 92.637 76.9578 105.104 63.5274C106.188 62.348 107.078 61.2892 107.078 61.1921C107.078 61.0961 104.358 61.0002 101.013 61.0002H94.9477L92.926 63.1659C85.9212 70.6995 76.367 75.4169 64.5968 77.1743C61.3231 77.6563 52.5142 77.5838 49.1925 77.0538C38.0249 75.2239 29.0709 70.8434 22.1632 63.8398C13.2092 54.7419 10.1531 43.1893 13.6912 31.756C16.002 24.3429 22.2591 16.7379 29.9612 11.948C37.4223 7.30305 45.9189 4.84722 55.5456 4.51026L59.7331 4.36636L57.9301 6.62914C50.806 15.6065 42.4779 27.4727 37.2071 36.1377C33.1156 42.8769 32.1047 45.4766 32.2732 48.9176C32.3457 50.6504 32.4896 51.2284 33.0676 52.3106C34.3195 54.5968 36.7496 56.1856 40.6492 57.1965L42.6955 57.7499H76.271H109.846L111.05 55.3432C112.423 52.6476 113.578 49.3739 114.228 46.3179C114.806 43.5976 114.806 38.1349 114.228 35.1736C111.58 21.7678 99.4745 9.92503 82.3375 3.93228L81.0856 3.49938L80.724 4.1967C80.5322 4.58163 79.8337 5.61708 79.1597 6.48288C78.5104 7.34985 77.9558 8.14311 77.9558 8.24022C77.9804 8.33616 78.7982 8.79363 79.8091 9.25111C84.3101 11.2974 88.3536 14.1124 92.0602 17.7956C96.9215 22.609 99.9062 27.7359 101.472 33.9463C102.073 36.3284 102.121 36.9789 102.121 40.9019C102.121 45.2099 101.807 47.4727 100.846 49.9765L100.581 50.6504H77.427C52.733 50.6504 52.348 50.6258 50.0852 49.471C48.9293 48.893 48.0155 47.8342 47.6306 46.6548C46.9812 44.729 48.136 41.288 50.3263 38.6158C51.4811 37.172 58.1969 27.881 66.5729 16.112C75.8393 3.06648 76.4407 2.15272 76.1762 2.00764C75.7188 1.74322 70.7603 0.852844 67.7277 0.49131C63.7789 0.0104446 58.2671 -0.133461 54.3686 0.130959Z" fill="white"/>
</svg>
