<svg width="92" height="114" viewBox="0 0 92 114" fill="none" xmlns="http://www.w3.org/2000/svg">
<path d="M46 0C42.4206 0 34.8833 0.06175 33.096 0.25175C31.4333 0.44175 30.9877 0.95 30.0294 2.15175C28.75 3.86175 17.7627 22.23 12.075 32.4282C7.92062 39.7718 1.40396 52.5682 0.828958 53.96C0.253958 55.1617 0 56.1782 0 57C0 57.8882 0.253958 58.9 0.828958 60.04C2.17062 63.0183 6.325 71.1217 12.075 81.5718C18.079 92.4017 28.9417 110.328 30.0917 111.91C31.304 113.558 32.1377 113.62 33.2206 113.748C34.8833 113.872 42.1044 114 46 114C50.1544 114 57.6917 113.81 58.7794 113.748C59.8 113.682 60.696 113.558 61.9083 111.91C62.996 110.39 74.6877 91.0718 79.925 81.5718C84.9706 72.4518 90.529 61.4983 91.171 60.04C91.8706 58.4583 92 57.6317 92 57C92 56.4917 91.8706 55.4182 91.171 53.96C87.5978 46.694 83.8481 39.5147 79.925 32.4282C73.854 21.5983 63.0583 3.67175 61.846 2.09C60.629 0.50825 59.9294 0.38 58.8417 0.31825H58.65C57.0544 0.06175 50.1544 0 46 0ZM57.246 4.37C57.6917 4.37 57.9456 4.43175 58.0127 4.56C56.096 8.29825 51.2373 17.7318 47.7873 26.41C52.6956 35.374 57.3407 44.4773 61.7167 53.7083C62.4833 55.3517 62.8667 56.1782 62.8667 57C62.8667 57.8218 62.4833 58.6483 61.7167 60.2917C55.8373 72.8317 42.1044 98.5482 36.4167 108.11C35.8417 109.06 35.2044 109.568 34.754 109.568C34.3083 109.568 34.0544 109.502 33.9873 109.378C35.904 105.64 40.7627 96.2018 44.2127 87.5283C39.3044 78.5642 34.6593 69.461 30.2833 60.23C29.5167 58.5818 29.1333 57.76 29.1333 56.9383C29.1333 56.1118 29.5167 55.29 30.3456 53.6418C36.0956 41.1017 49.8333 15.39 55.5833 5.82825C56.1583 4.87825 56.7956 4.37 57.246 4.37Z" fill="white"/>
</svg>
