<svg width="117" height="49" viewBox="0 0 117 49" fill="none" xmlns="http://www.w3.org/2000/svg">
<path d="M83.0505 40.9792H83.0164C82.368 41.1352 81.8317 40.755 81.9829 40.4576C82.5776 39.0926 83.2894 37.1426 83.4161 36.6356C84.006 34.6027 83.7866 33.2036 81.9878 31.7021C80.9153 30.8246 79.7111 29.9861 78.624 29.211C78.1121 28.7527 78.4046 28.3091 78.5655 28.1531C78.8775 27.8411 79.2675 27.5827 79.5698 27.3487C80.4473 26.6906 80.9884 26.7784 81.783 26.8612C83.0115 27.027 84.2351 27.2074 85.4588 27.4219C86.6434 27.6656 86.8871 27.2317 87.1748 26.403L87.867 24.3311C88.2911 23.1416 87.7207 22.8784 86.8432 22.8589L75.1774 22.4055C74.1926 22.3421 73.7978 22.6395 73.437 22.8832C71.682 24.1507 69.927 25.4085 68.1671 26.6711C67.2555 27.2854 67.6455 27.7046 67.8746 28.1239L68.8594 29.7375C69.6491 31.0245 69.3469 31.3804 68.6595 32.1311C68.133 32.6674 67.5578 33.1549 66.9533 33.5887L66.7436 33.735C64.9399 35.0122 63.0874 35.5875 61.5079 35.8556C57.7249 36.3772 54.171 36.4552 51.0364 36.5089C44.0717 36.6102 37.1076 36.2699 30.186 35.49C29.9192 35.4554 29.6483 35.5073 29.4131 35.638C29.178 35.7688 28.9909 35.9715 28.8795 36.2164L27.807 38.5564C27.7356 38.7093 27.6089 38.8295 27.4524 38.8928C27.2959 38.9561 27.1213 38.9578 26.9636 38.8976C16.9699 35.3437 10.6665 30.1226 10.6665 24.3067C10.6665 16.2679 22.6931 9.36488 39.8531 6.4155C40.2041 6.34725 40.404 6.48863 40.4869 6.56175C40.8623 6.87863 41.2425 7.1955 41.6081 7.527C41.847 7.73175 41.7934 7.94137 41.7397 8.112L32.5796 28.1239L31.1025 31.3462C30.7905 32.136 31.4681 32.3846 31.7021 32.3846C37.9665 32.7064 44.1139 32.5942 49.7152 32.0434C55.8577 31.5022 59.7188 30.1762 64.4865 27.2561C68.1535 24.9979 71.634 22.4499 74.8946 19.6365C76.7081 18.0131 77.6441 17.1064 78.819 15.6341C80.8714 12.9919 81.276 10.3691 79.6624 7.40512C79.4869 6.99562 79.9549 6.942 80.1304 6.96638C95.7011 10.1693 106.377 16.7359 106.377 24.3067C106.377 31.3901 97.0174 37.5911 83.0505 40.9792ZM44.5331 10.2277C44.9378 10.6275 45.2351 10.9395 45.6154 11.3392C46.6147 12.4751 47.4094 13.4989 47.3509 15.444C47.3216 16.6822 46.7318 18.1838 45.8981 19.6365C45.0694 21.1185 44.0798 22.5079 42.9634 23.7802C41.3302 25.7302 39.663 26.5785 37.4546 27.1391C37.0549 27.2171 36.9818 26.8759 37.0646 26.6662L43.9481 10.3399C44.148 9.984 44.4454 10.1497 44.5331 10.2277ZM58.6999 8.79937C58.1682 7.34999 57.334 6.03047 56.2526 4.92863C56.1425 4.82182 56.0414 4.70605 55.9504 4.5825C55.8821 4.4655 55.7554 4.251 55.9016 4.06088C56.0966 3.83663 56.3452 3.939 56.433 3.98775C57.0863 4.29975 59.319 5.5575 60.5182 8.78475C61.4884 11.388 60.8595 13.9718 58.4171 17.4184C55.2142 21.9326 52.455 25.3305 46.1029 27.885C43.329 29.0062 38.7904 29.4206 36.5966 29.4206C35.8361 29.4304 35.4023 29.3377 35.2755 29.0501C35.2448 28.9946 35.2295 28.9318 35.2313 28.8684C35.233 28.805 35.2516 28.7432 35.2852 28.6894C35.49 28.4164 35.7971 28.4602 36.0653 28.4602C38.5369 28.4602 42.9829 27.6169 45.6495 26.3689C51.2558 23.7412 54.054 20.2361 56.4379 16.8724C58.0466 14.6152 59.7431 11.6561 58.6999 8.79937ZM68.6449 9.62812C68.4401 8.18025 67.4554 6.9225 66.807 6.08887L66.2951 5.43075C66.1294 5.23575 65.9441 5.01637 66.1489 4.797C66.4755 4.4655 66.9922 4.86038 67.0995 4.92863C68.172 5.65013 70.0391 7.27838 70.5266 10.0571C70.941 12.3532 70.5656 15.7024 63.9941 21.2257C63.6382 21.5182 63.2824 21.8302 62.907 22.1617C60.1575 24.5505 56.7401 27.5291 49.1985 30.0105C46.5855 30.8636 41.6374 31.4876 37.4302 31.4876C36.6649 31.4876 35.9629 31.4632 35.334 31.4194C34.632 31.3706 34.4224 31.1269 34.3688 30.9319C34.353 30.8793 34.3497 30.8237 34.359 30.7696C34.3683 30.7155 34.39 30.6642 34.4224 30.6199C34.5199 30.4931 34.7149 30.4151 34.9586 30.4102C41.9884 30.264 44.4161 29.8252 48.6232 28.4797C54.8876 26.4713 59.4458 22.7614 62.7071 19.7535C69.2299 13.7426 68.8496 11.0662 68.6497 9.62812H68.6449ZM58.5 0C26.1885 0 0 10.8664 0 24.2775C0 37.6837 26.1885 48.555 58.5 48.555C90.8115 48.555 117 37.6837 117 24.2775C117 10.8712 90.8115 0 58.5 0Z" fill="white"/>
</svg>
